<?xml version="1.0" encoding="UTF-8"?>
<svg version="1.1" xmlns="http://www.w3.org/2000/svg" width="577" height="433">
<path d="M0 0 C4.29 0.33 8.58 0.66 13 1 C14.61035085 5.83105255 15.45984194 9.57835594 16.03515625 14.55078125 C16.11873886 15.25019333 16.20232147 15.94960541 16.28843689 16.67021179 C16.5524225 18.88365339 16.80818699 21.09792782 17.0625 23.3125 C17.32110064 25.54482143 17.58155363 27.77686103 17.84727478 30.00834656 C18.08653002 32.01974399 18.31894504 34.03195154 18.55102539 36.04418945 C18.68305487 38.88068807 18.68305487 38.88068807 20 40 C21.43935916 32.63476858 22.53047659 25.25821689 23.4921875 17.81640625 C24.2398947 12.19709906 25.11251763 6.59869198 26 1 C27.79090253 0.80533668 29.58276505 0.61948787 31.375 0.4375 C32.87160156 0.28087891 32.87160156 0.28087891 34.3984375 0.12109375 C37 0 37 0 39 1 C39.52454088 3.62576185 39.92347303 6.18004748 40.25390625 8.83203125 C40.35968491 9.62018723 40.46546356 10.4083432 40.57444763 11.22038269 C40.91239046 13.75003723 41.23788814 16.28110332 41.5625 18.8125 C41.89301411 21.33282032 42.22608833 23.85277781 42.56126404 26.3724823 C42.76930789 27.94246036 42.97423018 29.51285597 43.17567444 31.08369446 C43.61521078 34.4526531 44.13314389 37.71617213 45 41 C48.25829066 21.03783531 48.25829066 21.03783531 51 1 C54.14930893 -0.04976964 56.38814456 -0.10131595 59.6875 -0.0625 C60.68136719 -0.05347656 61.67523438 -0.04445312 62.69921875 -0.03515625 C63.83810547 -0.01775391 63.83810547 -0.01775391 65 0 C66.15874013 3.45289345 65.83056703 5.8685953 65.07421875 9.40234375 C64.85556152 10.45083496 64.6369043 11.49932617 64.41162109 12.57958984 C64.17266113 13.6877002 63.93370117 14.79581055 63.6875 15.9375 C63.21282411 18.21963294 62.74014298 20.50218175 62.26953125 22.78515625 C62.04475098 23.87199707 61.8199707 24.95883789 61.58837891 26.07861328 C60.52486585 31.35911003 59.75783625 36.66923729 59 42 C57.58204882 51.39582661 56.09388969 60.779136 54.375 70.125 C54.19046265 71.14654175 54.19046265 71.14654175 54.00219727 72.1887207 C53.12022861 76.87977139 53.12022861 76.87977139 52 78 C49.46950598 78.07313567 46.96695163 78.09247527 44.4375 78.0625 C43.37112305 78.05573242 43.37112305 78.05573242 42.28320312 78.04882812 C40.52209987 78.03700864 38.76103964 78.01907263 37 78 C36.88406494 77.23333008 36.76812988 76.46666016 36.64868164 75.67675781 C36.12192818 72.20086943 35.59224696 68.72543336 35.0625 65.25 C34.88009766 64.0434375 34.69769531 62.836875 34.50976562 61.59375 C34.33251953 60.43359375 34.15527344 59.2734375 33.97265625 58.078125 C33.81031494 57.00981445 33.64797363 55.94150391 33.48071289 54.84082031 C33.08728634 52.51582726 32.61643285 50.27384567 32 48 C31.91959473 48.589021 31.83918945 49.17804199 31.75634766 49.78491211 C31.38307525 52.50298485 31.00406921 55.22022988 30.625 57.9375 C30.43550781 59.32678711 30.43550781 59.32678711 30.2421875 60.74414062 C29.42355623 66.5768884 28.35240036 72.26699847 27 78 C22.05 78 17.1 78 12 78 C11.36887378 75.12623109 10.74508839 72.25115466 10.125 69.375 C9.95097656 68.58609375 9.77695312 67.7971875 9.59765625 66.984375 C8.57637139 62.21837899 7.75772101 57.46640014 7.09765625 52.63671875 C6.28653699 46.74770499 5.3008873 40.90723764 4.23828125 35.05859375 C4.08220398 34.19421692 3.92612671 33.32984009 3.76531982 32.43927002 C3.11763643 28.85779162 2.46785051 25.27678169 1.80541992 21.69799805 C1.31642717 19.04879251 0.83895458 16.39771855 0.36328125 13.74609375 C0.21127762 12.94086777 0.05927399 12.13564178 -0.09733582 11.30601501 C-0.23110123 10.55075027 -0.36486664 9.79548553 -0.50268555 9.01733398 C-0.623228 8.36006821 -0.74377045 7.70280243 -0.8679657 7.02561951 C-1 5 -1 5 0 0 Z " fill="#3F3F3F" transform="translate(354,177)"/>
<path d="M0 0 C3.9299381 3.82651868 7.12764239 8.79766254 7.52217102 14.4037323 C7.53693733 15.60997002 7.53693733 15.60997002 7.55200195 16.84057617 C7.57125481 18.212967 7.57125481 18.212967 7.59089661 19.61308289 C7.59828354 20.60057022 7.60567047 21.58805756 7.61328125 22.60546875 C7.621353 23.62546463 7.62942474 24.64546051 7.63774109 25.69636536 C7.65157683 27.85753686 7.66230126 30.01873016 7.67016602 32.17993164 C7.68734332 35.46999098 7.73123069 38.75903611 7.77539062 42.04882812 C7.78552104 44.15103429 7.79403605 46.25324899 7.80078125 48.35546875 C7.81828934 49.33283493 7.83579742 50.31020111 7.85383606 51.31718445 C7.8324883 58.1083799 6.73980329 63.77205602 1.92744446 68.83561707 C-4.1715519 74.14667927 -9.69696698 75.20863931 -17.625 75.3125 C-24.79503082 73.8243804 -29.58185101 69.89947054 -33.64453125 63.99609375 C-35.44820426 60.89895006 -35.75653304 58.26770222 -35.78613281 54.76855469 C-35.79574036 53.85039978 -35.8053479 52.93224487 -35.81524658 51.98626709 C-35.81949646 50.9956427 -35.82374634 50.00501831 -35.828125 48.984375 C-35.83382507 47.96200745 -35.83952515 46.93963989 -35.84539795 45.8862915 C-35.85484797 43.7209171 -35.86138194 41.55552832 -35.86523438 39.39013672 C-35.87492147 36.08926016 -35.90593766 32.78901117 -35.9375 29.48828125 C-35.94403212 27.38281619 -35.94928177 25.27734668 -35.953125 23.171875 C-35.9654718 22.18934753 -35.9778186 21.20682007 -35.99053955 20.19451904 C-35.96423038 12.03496883 -34.27779188 6.47918205 -28.625 0.3125 C-20.90643783 -7.13039924 -8.34852167 -5.36690679 0 0 Z M-21.625 15.3125 C-22.34735677 18.33810368 -22.32670519 21.27518988 -22.2890625 24.375 C-22.29384613 25.24390869 -22.29862976 26.11281738 -22.30355835 27.00805664 C-22.30695225 28.84035051 -22.29778544 30.67270535 -22.27685547 32.50488281 C-22.25008023 35.30411219 -22.27661803 38.09933233 -22.30859375 40.8984375 C-22.30528956 42.68230049 -22.29888313 44.46616099 -22.2890625 46.25 C-22.29918365 47.08345947 -22.30930481 47.91691895 -22.31973267 48.77563477 C-22.23255093 53.11411 -22.01357391 54.81787895 -19.24365234 58.34375 C-16.80883444 60.45818502 -16.80883444 60.45818502 -14.0625 60.875 C-10.86248883 60.13653588 -9.65628809 58.85161011 -7.625 56.3125 C-6.41637294 52.68661882 -6.46277653 49.34964868 -6.45703125 45.57421875 C-6.45370285 44.81583206 -6.45037445 44.05744537 -6.44694519 43.27607727 C-6.44188475 41.67144374 -6.43953659 40.0667997 -6.43969727 38.4621582 C-6.43751742 36.01951504 -6.41937108 33.57732851 -6.40039062 31.13476562 C-6.3974551 29.5729182 -6.39547137 28.01106865 -6.39453125 26.44921875 C-6.38734573 25.72401535 -6.38016022 24.99881195 -6.37275696 24.25163269 C-6.39648486 18.92559157 -6.73653117 14.20096883 -10.625 10.3125 C-16.17801544 9.4486976 -18.26324345 10.95069621 -21.625 15.3125 Z " fill="#404040" transform="translate(251.625,180.6875)"/>
<path d="M0 0 C0 9.9 0 19.8 0 30 C5.28 30 10.56 30 16 30 C16 19.77 16 9.54 16 -1 C20.29 -1 24.58 -1 29 -1 C30.68503699 0.68503699 30.11965983 2.76259884 30.12442017 5.01094055 C30.11902725 6.08555794 30.11902725 6.08555794 30.11352539 7.18188477 C30.11367142 7.93305573 30.11381744 8.68422668 30.1139679 9.4581604 C30.11326863 11.95260459 30.10547564 14.44697503 30.09765625 16.94140625 C30.09579212 18.66633564 30.09436819 20.39126557 30.09336853 22.11619568 C30.08954297 26.66512503 30.07971238 31.21402267 30.06866455 35.76293945 C30.05845124 40.40120006 30.05387108 45.03946577 30.04882812 49.67773438 C30.03809014 58.78517022 30.02101327 67.89258248 30 77 C25.38 77 20.76 77 16 77 C16 66.11 16 55.22 16 44 C10.72 44 5.44 44 0 44 C0 54.89 0 65.78 0 77 C-4.29 77 -8.58 77 -13 77 C-14 76 -14 76 -14.08229065 72.99449158 C-14.06733407 71.63289758 -14.04665611 70.27136006 -14.02172852 68.90991211 C-14.01212097 68.16849472 -14.00251343 67.42707733 -13.99261475 66.66319275 C-13.95951098 64.20114988 -13.91922241 61.73927823 -13.87890625 59.27734375 C-13.85461623 57.57484042 -13.83077212 55.87233067 -13.80735779 54.16981506 C-13.74440551 49.68001011 -13.67537067 45.19031818 -13.60510254 40.70062256 C-13.53451946 36.1227332 -13.46964259 31.54476346 -13.40429688 26.96679688 C-13.27514101 17.97777624 -13.13956429 8.98886463 -13 0 C-11.20909747 -0.19466332 -9.41723495 -0.38051213 -7.625 -0.5625 C-6.12839844 -0.71912109 -6.12839844 -0.71912109 -4.6015625 -0.87890625 C-2 -1 -2 -1 0 0 Z " fill="#3A3A3A" transform="translate(179,178)"/>
<path d="M0 0 C4.26385874 3.77932934 7.85640961 7.32967044 9 13 C9.06926968 15.75970408 9.0941736 18.49196042 9.0625 21.25 C9.05798828 21.99507812 9.05347656 22.74015625 9.04882812 23.5078125 C9.03709246 25.3385764 9.0191585 27.16929873 9 29 C4.38 29 -0.24 29 -5 29 C-5.33 24.05 -5.66 19.1 -6 14 C-6.66 14 -7.32 14 -8 14 C-8 13.34 -8 12.68 -8 12 C-13.38791049 11.40529452 -13.38791049 11.40529452 -18 13.5625 C-19.42567383 17.03757996 -19.58786052 19.27688339 -19 23 C-14.513682 27.27686641 -9.56434158 30.07921845 -4.12304688 32.9609375 C1.98392613 36.3053915 6.69283807 40.32137337 9 47 C9.89197987 55.77317187 9.07414429 62.20221086 3.625 69.25 C-0.63724666 73.71521079 -3.80009699 75.37762411 -10.0793457 75.56982422 C-10.81628662 75.56740723 -11.55322754 75.56499023 -12.3125 75.5625 C-13.07071045 75.56008301 -13.8289209 75.55766602 -14.61010742 75.55517578 C-19.98042432 75.37803695 -23.5637027 74.52317997 -27.55859375 70.70703125 C-33.9005795 63.19633268 -35.2953512 56.59891416 -35 47 C-30.05 47 -25.1 47 -20 47 C-19.9175 48.4025 -19.835 49.805 -19.75 51.25 C-19.38508966 54.37639401 -19.06125815 55.90104452 -17.375 58.625 C-14.93437799 60.31063919 -14.93437799 60.31063919 -11.375 59.9375 C-7.74483076 59.3249155 -7.74483076 59.3249155 -6 56 C-5.33256123 53.58655333 -5.33256123 53.58655333 -6 51 C-9.394428 47.42208941 -13.09433806 45.35970962 -17.4375 43.0625 C-23.92372054 39.62083196 -29.829229 35.87000383 -33 29 C-34.71907672 21.8089326 -35.16831996 13.75778656 -32.1796875 6.85546875 C-29.45764023 2.57410301 -25.52420844 -1.29566442 -20.578125 -2.67578125 C-13.14741082 -3.61024985 -6.58764478 -3.82083397 0 0 Z " fill="#3F3F3F" transform="translate(298,180)"/>
<path d="M0 0 C5.28 0 10.56 0 16 0 C18.12147063 5.27958985 19.60980803 10.28083145 20.46484375 15.91796875 C20.58306488 16.64933044 20.70128601 17.38069214 20.8230896 18.13421631 C21.20183324 20.48421281 21.56965833 22.83577499 21.9375 25.1875 C22.45676064 28.43297059 22.9818484 31.6774848 23.5078125 34.921875 C23.63555557 35.71395859 23.76329865 36.50604218 23.89491272 37.3221283 C24.90725442 43.55374252 26.06790184 49.74805156 27.3125 55.9375 C28.78492698 63.32233266 29.63674366 70.46243086 30 78 C25.38 78 20.76 78 16 78 C15.67 75.03 15.34 72.06 15 69 C10.38 69 5.76 69 1 69 C0.67 71.97 0.34 74.94 0 78 C-4.62 78 -9.24 78 -14 78 C-15.19429762 74.41710713 -14.46804531 72.28652528 -13.60083008 68.69604492 C-12.9561077 65.80304645 -12.50235575 62.92103117 -12.07421875 59.98828125 C-11.06822518 53.31670842 -9.87576057 46.69197128 -8.625 40.0625 C-7.33918217 33.21324014 -6.0547434 26.36503137 -4.85546875 19.5 C-4.67870605 18.49573975 -4.50194336 17.49147949 -4.31982422 16.45678711 C-3.98963445 14.57305288 -3.66418785 12.68847904 -3.34423828 10.80297852 C-3.19583496 9.96178467 -3.04743164 9.12059082 -2.89453125 8.25390625 C-2.76925049 7.52502197 -2.64396973 6.7961377 -2.51489258 6.04516602 C-2 4 -2 4 0 0 Z M8 30 C4.39611228 42.78671907 4.39611228 42.78671907 4 56 C6.64 56 9.28 56 12 56 C11.69083423 52.79133632 11.37706711 49.58313829 11.0625 46.375 C10.97548828 45.47136719 10.88847656 44.56773437 10.79882812 43.63671875 C10.34748614 39.05643346 9.8352958 34.5301628 9 30 C8.67 30 8.34 30 8 30 Z " fill="#404040" transform="translate(431,177)"/>
<path d="M0 0 C0.66 0 1.32 0 2 0 C2 2.97 2 5.94 2 9 C3.175625 8.9175 4.35125 8.835 5.5625 8.75 C10.12844957 8.78226819 13.52051293 10.02723435 17 13 C21.07891649 17.28492237 22.33218635 21.24422596 22.5 27.125 C22.30798232 31.8654364 21.62425048 35.06362428 19 39 C18.34 39 17.68 39 17 39 C16.67 39.99 16.34 40.98 16 42 C9.33848095 46.79110004 1.72686773 46.52824597 -6.12890625 46.390625 C-7.35915024 46.38496521 -8.58939423 46.37930542 -9.85691833 46.37347412 C-13.75918645 46.3512092 -17.66051268 46.3010284 -21.5625 46.25 C-24.2193876 46.22765076 -26.87626635 46.21167396 -29.53320312 46.1953125 C-36.02245297 46.15137663 -42.51115917 46.08456265 -49 46 C-49 43.36 -49 40.72 -49 38 C-41.375 36 -41.375 36 -38 36 C-37.67 35.01 -37.34 34.02 -37 33 C-36.34 33 -35.68 33 -35 33 C-34.67 32.01 -34.34 31.02 -34 30 C-32.390625 28.5625 -32.390625 28.5625 -30.25 27 C-26.10743674 23.85966979 -22.02054192 20.66957991 -18 17.375 C-17.13616699 16.69244141 -17.13616699 16.69244141 -16.25488281 15.99609375 C-13.70357939 13.88656785 -12.14609715 12.50162421 -11.20703125 9.27734375 C-11.13871094 8.52582031 -11.07039063 7.77429688 -11 7 C-9.6875 5.1875 -9.6875 5.1875 -8 4 C-6.68 4 -5.36 4 -4 4 C-2.62689293 2.70766393 -1.28965176 1.37562854 0 0 Z " fill="#3E3E3E" transform="translate(125,209)"/>
<path d="M0 0 C1.16090149 0.00007553 2.32180298 0.00015106 3.5178833 0.00022888 C5.38993439 0.00797081 5.38993439 0.00797081 7.29980469 0.01586914 C8.5815155 0.01728409 9.86322632 0.01869904 11.18377686 0.02015686 C14.58351609 0.02396639 17.98321229 0.03378325 21.38293457 0.04486084 C24.85521869 0.05510865 28.32750979 0.05966169 31.79980469 0.06469727 C38.60711398 0.07540698 45.41439476 0.09246455 52.22167969 0.11352539 C52.22167969 2.42352539 52.22167969 4.73352539 52.22167969 7.11352539 C51.27808594 7.31655273 51.27808594 7.31655273 50.31542969 7.52368164 C44.1445206 9.07570245 40.33970116 11.20982791 35.81542969 15.68774414 C34.22167969 17.11352539 34.22167969 17.11352539 32.22167969 17.11352539 C32.22167969 17.77352539 32.22167969 18.43352539 32.22167969 19.11352539 C30.52893685 20.67785326 28.76598116 22.16681111 26.97167969 23.61352539 C25.50988281 24.80461914 25.50988281 24.80461914 24.01855469 26.01977539 C21.77273207 27.70100573 19.77509939 28.99488438 17.22167969 30.11352539 C17.22167969 30.77352539 17.22167969 31.43352539 17.22167969 32.11352539 C16.23167969 32.60852539 16.23167969 32.60852539 15.22167969 33.11352539 C14.5661285 35.64085774 14.5661285 35.64085774 14.22167969 38.11352539 C13.56167969 38.11352539 12.90167969 38.11352539 12.22167969 38.11352539 C12.22167969 38.77352539 12.22167969 39.43352539 12.22167969 40.11352539 C11.56167969 40.11352539 10.90167969 40.11352539 10.22167969 40.11352539 C9.89167969 40.77352539 9.56167969 41.43352539 9.22167969 42.11352539 C7.73667969 41.61852539 7.73667969 41.61852539 6.22167969 41.11352539 C5.58230469 41.77352539 4.94292969 42.43352539 4.28417969 43.11352539 C2.22167969 45.11352539 2.22167969 45.11352539 1.22167969 45.11352539 C1.22167969 42.47352539 1.22167969 39.83352539 1.22167969 37.11352539 C-2.73832031 36.12352539 -6.69832031 35.13352539 -10.77832031 34.11352539 C-10.77832031 33.45352539 -10.77832031 32.79352539 -10.77832031 32.11352539 C-11.76832031 32.11352539 -12.75832031 32.11352539 -13.77832031 32.11352539 C-17.61195505 27.84777575 -19.8754868 22.84634804 -19.77832031 17.11352539 C-18.12078388 10.02295288 -16.03485735 5.02386104 -9.77832031 1.11352539 C-6.5014934 0.01890444 -3.43933275 -0.00747681 0 0 Z " fill="#3A3A3A" transform="translate(94.7783203125,182.886474609375)"/>
<path d="M0 0 C4.67964759 0.17931901 9.33128895 0.62145586 14 1 C16.31 9.58 18.62 18.16 21 27 C21.5775 24.40125 22.155 21.8025 22.75 19.125 C24.27811229 12.44717485 26.20940524 6.2788382 29 0 C33.29 0 37.58 0 42 0 C41.49045661 6.69781374 40.09465545 12.29051576 37.75 18.5625 C37.11660055 20.35135478 36.48379327 22.14041934 35.8515625 23.9296875 C34.78960881 26.88587784 33.68094315 29.80123287 32.4609375 32.6953125 C26.99773302 46.9763207 28.09740362 62.91129441 28 78 C23.05 78 18.1 78 13 78 C12.97421875 75.52886719 12.9484375 73.05773437 12.921875 70.51171875 C12.88331253 68.08216623 12.83819866 65.65281588 12.79248047 63.22338867 C12.76449175 61.55259068 12.74316888 59.88166572 12.72900391 58.21069336 C12.64064294 48.3702276 12.17856321 40.0925783 8 31 C4.91393556 22.47810448 2.49351555 13.70936545 0 5 C-0.20802246 4.28239502 -0.41604492 3.56479004 -0.63037109 2.82543945 C-0.75234863 2.22304443 -0.87432617 1.62064941 -1 1 C-0.67 0.67 -0.34 0.34 0 0 Z " fill="#424242" transform="translate(458,177)"/>
<path d="M0 0 C1.77218729 0.04235793 3.54424443 0.09038445 5.31616211 0.14282227 C6.24698105 0.16643326 7.17779999 0.19004425 8.13682556 0.21437073 C11.12253311 0.29120977 14.10799434 0.37514647 17.09350586 0.45922852 C19.11237384 0.51242896 21.131254 0.56516947 23.15014648 0.61743164 C28.1105902 0.74685216 33.07082419 0.88264032 38.03100586 1.02172852 C38.03100586 5.64172852 38.03100586 10.26172852 38.03100586 15.02172852 C33.41100586 15.02172852 28.79100586 15.02172852 24.03100586 15.02172852 C24.03100586 35.81172852 24.03100586 56.60172852 24.03100586 78.02172852 C19.41100586 78.02172852 14.79100586 78.02172852 10.03100586 78.02172852 C9.03100586 77.02172852 9.03100586 77.02172852 8.91075134 74.54771423 C8.91297195 73.44851151 8.91519257 72.34930878 8.91748047 71.21679688 C8.917556 69.97558578 8.91763153 68.73437469 8.91770935 67.45555115 C8.92281675 66.09089112 8.92803276 64.72623149 8.93334961 63.36157227 C8.93521386 61.97294668 8.93663773 60.58432044 8.93763733 59.19569397 C8.94146199 55.53451737 8.95129183 51.87338021 8.96234131 48.21221924 C8.97255654 44.47880589 8.97713519 40.74538618 8.98217773 37.01196289 C8.99291415 29.68186467 9.01051052 22.35180714 9.03100586 15.02172852 C4.41100586 15.02172852 -0.20899414 15.02172852 -4.96899414 15.02172852 C-5.06665039 4.18188477 -5.06665039 4.18188477 -4.96899414 1.02172852 C-3.96899414 0.02172852 -3.96899414 0.02172852 0 0 Z " fill="#434343" transform="translate(313.968994140625,176.978271484375)"/>
<path d="M0 0 C4.29 0.33 8.58 0.66 13 1 C14.61594809 5.84784428 15.44716466 9.56199757 16 14.55078125 C16.16653643 15.98504117 16.33320691 17.41928553 16.5 18.85351562 C16.75299365 21.09611659 17.00292045 23.33901508 17.25 25.58227539 C17.4922332 27.76024515 17.74553131 29.9367125 18 32.11328125 C18.144375 33.41048096 18.28875 34.70768066 18.4375 36.04418945 C18.623125 37.01960693 18.80875 37.99502441 19 39 C19.66 39.33 20.32 39.66 21 40 C21 43.3 21 46.6 21 50 C20.34 50 19.68 50 19 50 C19 49.34 19 48.68 19 48 C18.05125 48.495 17.1025 48.99 16.125 49.5 C13 51 13 51 11 51 C11 51.66 11 52.32 11 53 C10.34 53 9.68 53 9 53 C9.33 55.97 9.66 58.94 10 62 C7.79435515 58.69153272 7.57182306 56.99402756 7.10546875 53.09765625 C6.31104819 47.04807758 5.33492173 41.06054715 4.23828125 35.05859375 C4.08221405 34.1948111 3.92614685 33.33102844 3.76535034 32.44107056 C3.11794817 28.85893826 2.46795849 25.27736506 1.80541992 21.69799805 C1.31642717 19.04879251 0.83895458 16.39771855 0.36328125 13.74609375 C0.21127762 12.94086777 0.05927399 12.13564178 -0.09733582 11.30601501 C-0.23110123 10.55075027 -0.36486664 9.79548553 -0.50268555 9.01733398 C-0.623228 8.36006821 -0.74377045 7.70280243 -0.8679657 7.02561951 C-1 5 -1 5 0 0 Z " fill="#444444" transform="translate(354,177)"/>
<path d="M0 0 C5.61 0 11.22 0 17 0 C17 2.31 17 4.62 17 7 C14.36 7 11.72 7 9 7 C8.34 5.68 7.68 4.36 7 3 C7.33 2.67 7.66 2.34 8 2 C5.36 1.67 2.72 1.34 0 1 C0 0.67 0 0.34 0 0 Z " fill="#595959" transform="translate(130,183)"/>
<path d="M0 0 C1.125 3.75 1.125 3.75 0 6 C-0.66 6 -1.32 6 -2 6 C-2.66 7.32 -3.32 8.64 -4 10 C-4.66 10 -5.32 10 -6 10 C-6 10.66 -6 11.32 -6 12 C-6.66 12 -7.32 12 -8 12 C-8 10.35 -8 8.7 -8 7 C-7.01 6.67 -6.02 6.34 -5 6 C-4.67 4.35 -4.34 2.7 -4 1 C-2.68 0.67 -1.36 0.34 0 0 Z " fill="#333333" transform="translate(396,216)"/>
<path d="M0 0 C1.4540625 0.0309375 1.4540625 0.0309375 2.9375 0.0625 C2 1.9375 2 1.9375 -0.0625 4.0625 C-3.01735056 5.01601561 -5.9994519 5.57446718 -9.0625 6.0625 C-3.0625 0.0625 -3.0625 0.0625 0 0 Z " fill="#505050" transform="translate(278.0625,177.9375)"/>
<path d="M0 0 C3.96 0.33 7.92 0.66 12 1 C10.35 2.98 8.7 4.96 7 7 C6.34 6.67 5.68 6.34 5 6 C5 5.34 5 4.68 5 4 C5.66 4 6.32 4 7 4 C7 3.34 7 2.68 7 2 C4.69 2.66 2.38 3.32 0 4 C0 2.68 0 1.36 0 0 Z " fill="#2F2F2F" transform="translate(354,177)"/>
<path d="M0 0 C0.66 0.33 1.32 0.66 2 1 C2 1.66 2 2.32 2 3 C0.35666496 4.03789581 -1.31243867 5.03567924 -3 6 C-3.66 6.66 -4.32 7.32 -5 8 C-7.125 7.625 -7.125 7.625 -9 7 C-8.34 7 -7.68 7 -7 7 C-6.67 6.01 -6.34 5.02 -6 4 C-4.04402816 2.60287726 -2.04563599 1.26220093 0 0 Z " fill="#555555" transform="translate(97,235)"/>
<path d="M0 0 C2 1.25 2 1.25 4 3 C4 4.32 4 5.64 4 7 C2.02 6.34 0.04 5.68 -2 5 C-1.34 3.35 -0.68 1.7 0 0 Z " fill="#343434" transform="translate(410,204)"/>
<path d="M0 0 C0.66 0.66 1.32 1.32 2 2 C2.99 2.33 3.98 2.66 5 3 C4.67 3.99 4.34 4.98 4 6 C2.35 6 0.7 6 -1 6 C-1.625 4.125 -1.625 4.125 -2 2 C-1.34 1.34 -0.68 0.68 0 0 Z " fill="#4A4A4A" transform="translate(115,215)"/>
<path d="M0 0 C0.99 0 1.98 0 3 0 C2.67 2.31 2.34 4.62 2 7 C0.68 6.01 -0.64 5.02 -2 4 C-1.34 2.68 -0.68 1.36 0 0 Z " fill="#4D4D4D" transform="translate(486,211)"/>
<path d="M0 0 C0.66 0 1.32 0 2 0 C2.66 1.32 3.32 2.64 4 4 C3.525625 4.391875 3.05125 4.78375 2.5625 5.1875 C0.64820367 7.40808374 0.38733012 9.13375709 0 12 C-0.33 12 -0.66 12 -1 12 C-0.67 8.04 -0.34 4.08 0 0 Z " fill="#848484" transform="translate(402,197)"/>
<path d="M0 0 C0.66 0 1.32 0 2 0 C2 1.65 2 3.3 2 5 C0.35 5 -1.3 5 -3 5 C-1.125 1.125 -1.125 1.125 0 0 Z " fill="#626262" transform="translate(125,209)"/>
<path d="M0 0 C1.45792884 -0.05399736 2.91642712 -0.09279177 4.375 -0.125 C5.18710937 -0.14820313 5.99921875 -0.17140625 6.8359375 -0.1953125 C9 0 9 0 11 2 C9.02 2.66 7.04 3.32 5 4 C5 3.34 5 2.68 5 2 C3.35 1.67 1.7 1.34 0 1 C0 0.67 0 0.34 0 0 Z " fill="#434343" transform="translate(326,178)"/>
</svg>
